PathFileType	4	(x/y/z)	S08_M20_T13
DataRate	CameraRate	NumFrames	NumMarkers	Units	OrigDataRate	OrigDataStartFrame	OrigNumFrames
240	240	7	51	mm	240	394	524
Frame#	Time	Sternum			R.Acromium			L.Acromium			Top.Head			R.ASIS			L.ASIS			R.PSIS			L.PSIS			R.Great.Tro			L.Great.Tro			R.Iliac.Crest			L.Iliac.Crest			V.Sacral			R.Thigh.Upper.Post			R.Thigh.Lower.Ant			R.Thigh.Lower.Post			R.Thigh.Upper.Ant			R.Knee.Lat			R.Knee.Med			R.Shank.Upper.Post			R.Shank.Lower.Ant			R.Shank.Lower.Post			R.Shank.Upper.Ant			R.Ankle.Lat			R.Ankle.Med			R.Heel.Upper			R.Heel.Med			R.Heel.Lat			R.Toe.Lat			R.Toe.Med			R.Toe.Tip			L.Thigh.Upper.Post			L.Thigh.Lower.Ant			L.Thigh.Lower.Post			L.Thigh.Upper.Ant			L.Knee.Lat			L.Knee.Med			L.Shank.Upper.Post			L.Shank.Lower.Ant			L.Shank.Lower.Post			L.Shank.Upper.Ant			L.Ankle.Lat			L.Ankle.Med			L.Heel.Upper			L.Heel.Med			L.Heel.Lat			L.Toe.Lat			L.Toe.Med			L.Toe.Tip			Cervical.Spine			Back			
		X1	Y1	Z1	X2	Y2	Z2	X3	Y3	Z3	X4	Y4	Z4	X5	Y5	Z5	X6	Y6	Z6	X7	Y7	Z7	X8	Y8	Z8	X9	Y9	Z9	X10	Y10	Z10	X11	Y11	Z11	X12	Y12	Z12	X13	Y13	Z13	X14	Y14	Z14	X15	Y15	Z15	X16	Y16	Z16	X17	Y17	Z17	X18	Y18	Z18	X19	Y19	Z19	X20	Y20	Z20	X21	Y21	Z21	X22	Y22	Z22	X23	Y23	Z23	X24	Y24	Z24	X25	Y25	Z25	X26	Y26	Z26	X27	Y27	Z27	X28	Y28	Z28	X29	Y29	Z29	X30	Y30	Z30	X31	Y31	Z31	X32	Y32	Z32	X33	Y33	Z33	X34	Y34	Z34	X35	Y35	Z35	X36	Y36	Z36	X37	Y37	Z37	X38	Y38	Z38	X39	Y39	Z39	X40	Y40	Z40	X41	Y41	Z41	X42	Y42	Z42	X43	Y43	Z43	X44	Y44	Z44	X45	Y45	Z45	X46	Y46	Z46	X47	Y47	Z47	X48	Y48	Z48	X49	Y49	Z49	X50	Y50	Z50	X51	Y51	Z51	

394	1.6375	548.15	1232.7	305.64	435.42	1464.5	481.58	416.44	1494	146.05	451.91	1788.3	326.65	537.7	1015.9	414.33	543.31	1025.7	182.75	338.44	1041.1	338.31	343.84	1050.7	245.24	473.64	900.3	480.88	456.54	921.69	111.78	438.91	1080	462.41	445.33	1106.8	152.89	324.31	1005.5	287.27	517.29	702.03	475.03	622.08	629.93	450.57	551.13	618.37	458.42	595.14	719.83	467.7	607.83	528.64	446.63	590.5	526.38	316.24	461.03	415.44	457.54	472.04	327.29	439.48	413.8	354.29	454.84	519.52	389.48	446.45	310.74	222.38	426.31	345.42	211.63	349.3	252.43	217.59	375.93	247.23	188.31	349.87	240.27	196.87	411.07	NaN	NaN	NaN	397.36	81.314	350.41	458.57	63.037	399.79	448.64	706.51	135.68	537.49	622.43	166.03	470.01	620.3	156.7	521.28	706.41	138.74	488.65	520.01	182.91	485.15	524.9	307.07	420.61	341.04	185.65	482.21	251.65	215.44	413.09	269.43	204.6	483.66	326.06	195.88	421.67	98.953	228.68	443.6	105.49	315.24	368.74	76.545	280.13	381.63	42.275	310.36	375.47	48.754	246.88	551.43	40.038	211.93	571.54	41.068	327.84	634.67	58.485	278.06	359.6	1524.7	310.42	314.54	1238.9	316.9
395	1.6417	552.7	1232.8	305.45	440.15	1464.6	481.51	421.34	1494.4	145.98	457.03	1788.4	326.64	542.43	1016.2	414	547.54	1025.8	182.36	342.92	1041.2	338.48	348.15	1050.7	245.4	479.02	900.83	480.87	460.38	921.6	111.84	443.68	1080.3	462.29	449.56	1106.9	152.77	328.74	1005.6	287.48	524.55	702.95	475.09	629.89	631.8	449.95	559.13	619.59	458.34	602.24	721.43	467.22	616.48	530.28	446.05	598.45	527.93	315.91	471.57	414.29	457.43	484.2	326.41	439.23	425.58	352.26	454.74	530.5	389.45	446.12	324.94	218.25	426.48	359.64	208.34	349.3	266.41	212.04	376.25	261.88	182.6	350.22	254.91	190.98	411.46	NaN	NaN	NaN	414.79	79.447	350.36	476.6	62.703	399.53	451.32	706.74	135.78	539.73	622.12	165.93	472.27	620.4	156.72	523.93	706.21	138.71	490.37	519.94	182.95	487.04	524.84	307.13	421.63	341.18	185.7	482.9	251.59	215.53	413.87	269.65	204.6	484.6	325.99	195.94	421.85	99.117	228.81	443.52	105.47	315.36	368.81	76.615	280.21	381.67	42.301	310.41	375.51	48.854	246.94	551.48	40.017	211.96	571.62	40.856	327.84	634.78	58.147	278.09	364.42	1524.9	310.31	319.1	1239.2	316.64
396	1.6458	557.25	1232.8	305.26	444.88	1464.7	481.45	426.25	1494.7	145.92	462.15	1788.5	326.63	547.16	1016.4	413.68	551.76	1025.8	181.97	347.4	1041.3	338.67	352.46	1050.7	245.58	484.39	901.35	480.87	464.21	921.49	111.91	448.45	1080.6	462.19	453.78	1106.9	152.66	333.18	1005.6	287.71	531.74	703.86	475.12	637.58	633.63	449.32	567.01	620.78	458.24	609.25	722.99	466.73	625.01	531.9	445.47	606.29	529.42	315.57	482.09	413.09	457.32	496.37	325.5	438.99	437.38	350.17	454.63	541.45	389.4	445.78	339.25	214.06	426.64	373.98	205.01	349.31	280.56	206.45	376.56	276.71	176.88	350.54	269.73	185.07	411.83	NaN	NaN	NaN	432.29	77.615	350.28	494.64	62.398	399.25	454.02	706.97	135.9	541.99	621.81	165.85	474.54	620.49	156.75	526.58	706.01	138.69	492.1	519.86	182.99	488.92	524.78	307.2	422.67	341.31	185.76	483.59	251.53	215.62	414.66	269.87	204.61	485.55	325.92	196.01	422.03	99.281	228.93	443.44	105.44	315.48	368.89	76.685	280.3	381.73	42.323	310.46	375.56	48.955	246.99	551.53	39.997	211.98	571.7	40.654	327.84	634.88	57.815	278.11	369.24	1525.1	310.21	323.66	1239.4	316.39
397	1.65	561.79	1232.8	305.07	449.61	1464.7	481.39	431.16	1494.9	145.86	467.26	1788.5	326.63	551.9	1016.7	413.36	555.97	1025.7	181.59	351.88	1041.3	338.88	356.77	1050.7	245.78	489.77	901.83	480.87	468.04	921.37	111.98	453.24	1080.8	462.09	457.98	1106.9	152.56	337.61	1005.6	287.96	538.85	704.74	475.12	645.17	635.4	448.68	574.79	621.94	458.1	616.15	724.52	466.23	633.42	533.49	444.88	614.03	530.85	315.23	492.58	411.83	457.19	508.53	324.58	438.75	449.2	348.04	454.5	552.35	389.33	445.45	353.67	209.85	426.79	388.44	201.66	349.32	294.88	200.84	376.86	291.72	171.17	350.83	284.71	179.15	412.17	NaN	NaN	NaN	449.85	75.825	350.17	512.69	62.129	398.96	456.74	707.19	136.02	544.26	621.5	165.77	476.83	620.57	156.81	529.24	705.81	138.68	493.84	519.78	183.03	490.81	524.71	307.27	423.72	341.43	185.84	484.28	251.47	215.71	415.46	270.1	204.61	486.5	325.85	196.07	422.22	99.443	229.05	443.37	105.42	315.61	368.96	76.753	280.38	381.8	42.342	310.52	375.62	49.056	247.04	551.57	39.976	212.02	571.77	40.463	327.84	634.98	57.49	278.14	374.07	1525.3	310.12	328.22	1239.6	316.15
398	1.6542	566.34	1232.8	304.89	454.34	1464.7	481.33	436.08	1495.2	145.81	472.37	1788.5	326.64	556.64	1016.9	413.04	560.18	1025.7	181.21	356.36	1041.3	339.11	361.07	1050.6	246	495.13	902.3	480.88	471.87	921.24	112.06	458.03	1081	462.01	462.16	1106.9	152.47	342.04	1005.6	288.23	545.88	705.6	475.08	652.64	637.12	448.04	582.45	623.07	457.93	622.95	725.99	465.71	641.71	535.03	444.29	621.66	532.22	314.88	503.04	410.53	457.06	520.7	323.65	438.51	461.03	345.87	454.36	563.22	389.23	445.1	368.19	205.61	426.93	403.01	198.29	349.32	309.37	195.22	377.14	306.9	165.47	351.07	299.84	173.23	412.47	NaN	NaN	NaN	467.47	74.087	350.06	530.74	61.906	398.66	459.49	707.4	136.13	546.56	621.19	165.71	479.12	620.64	156.88	531.92	705.6	138.68	495.6	519.7	183.07	492.7	524.63	307.34	424.78	341.56	185.92	484.98	251.41	215.79	416.28	270.34	204.61	487.46	325.77	196.14	422.4	99.603	229.18	443.31	105.41	315.75	369.04	76.822	280.46	381.88	42.359	310.59	375.67	49.158	247.09	551.62	39.954	212.05	571.84	40.283	327.83	635.08	57.175	278.16	378.9	1525.4	310.02	332.79	1239.8	315.9
399	1.6583	570.88	1232.7	304.72	459.07	1464.7	481.28	441.01	1495.4	145.76	477.48	1788.5	326.65	561.39	1017.2	412.74	564.4	1025.7	180.84	360.85	1041.3	339.36	365.37	1050.5	246.24	500.5	902.74	480.9	475.7	921.1	112.15	462.84	1081.2	461.94	466.33	1106.8	152.39	346.48	1005.5	288.53	552.83	706.43	475.01	659.99	638.77	447.39	590	624.17	457.73	629.66	727.42	465.19	649.88	536.54	443.7	629.19	533.53	314.53	513.48	409.18	456.91	532.85	322.72	438.26	472.86	343.67	454.19	574.03	389.13	444.75	382.82	201.38	427.05	417.69	194.91	349.31	324.02	189.6	377.39	322.25	159.81	351.28	315.13	167.33	412.73	NaN	NaN	NaN	485.14	72.41	349.93	548.79	61.738	398.37	462.25	707.61	136.25	548.87	620.88	165.65	481.42	620.71	156.97	534.6	705.4	138.69	497.37	519.62	183.12	494.59	524.54	307.42	425.85	341.69	186.01	485.68	251.35	215.86	417.1	270.58	204.62	488.43	325.69	196.2	422.59	99.758	229.3	443.28	105.4	315.89	369.11	76.89	280.54	381.97	42.376	310.65	375.72	49.26	247.13	551.66	39.931	212.08	571.91	40.114	327.82	635.17	56.87	278.17	383.74	1525.6	309.94	337.35	1240	315.67
400	1.6625	575.42	1232.6	304.55	463.81	1464.6	481.23	445.94	1495.7	145.73	482.58	1788.5	326.66	566.14	1017.4	412.44	568.61	1025.6	180.48	365.34	1041.2	339.63	369.67	1050.4	246.5	505.86	903.16	480.93	479.53	920.95	112.24	467.65	1081.4	461.88	470.5	1106.7	152.32	350.91	1005.5	288.84	559.7	707.22	474.91	667.23	640.35	446.73	597.42	625.22	457.5	636.26	728.79	464.66	657.92	538.01	443.1	636.61	534.78	314.17	523.89	407.8	456.74	545	321.78	438.02	484.69	341.45	454.01	584.8	389.01	444.4	397.54	197.16	427.15	432.47	191.54	349.29	338.84	184	377.61	337.77	154.18	351.43	330.56	161.46	412.93	NaN	NaN	NaN	502.86	70.803	349.79	566.82	61.636	398.1	465.04	707.82	136.35	551.21	620.58	165.6	483.73	620.77	157.08	537.3	705.2	138.71	499.14	519.53	183.16	496.49	524.44	307.49	426.92	341.82	186.1	486.38	251.3	215.93	417.94	270.83	204.62	489.41	325.61	196.27	422.79	99.909	229.42	443.27	105.39	316.03	369.19	76.957	280.61	382.06	42.391	310.72	375.77	49.36	247.17	551.7	39.907	212.11	571.98	39.956	327.81	635.25	56.577	278.19	388.58	1525.7	309.85	341.92	1240.1	315.43
